<svg width="50" height="50" viewBox="0 0 50 50" fill="none" xmlns="http://www.w3.org/2000/svg">
<path d="M49.8115 47.4119H49.8204L26.6031 0.909563C26.0767 0.0254864 24.9344 -0.263861 24.0516 0.263168C23.7862 0.421623 23.5643 0.643795 23.4061 0.909563L0.188743 47.4119C-0.25213 48.2956 0.105654 49.3697 0.988029 49.8114C1.23353 49.9342 1.50393 49.9987 1.77831 50H48.2132C49.1996 50.0004 49.9995 49.2001 50 48.2123C50 47.9344 49.9355 47.6604 49.8115 47.4119ZM26.7816 41.0572C26.7816 42.045 25.982 42.8458 24.9956 42.8458C24.0092 42.8458 23.2096 42.045 23.2096 41.0572V39.2686C23.2096 38.2807 24.0092 37.48 24.9956 37.48C25.982 37.48 26.7816 38.2807 26.7816 39.2686V41.0572ZM26.7816 32.1144C26.7816 33.1023 25.982 33.903 24.9956 33.903C24.0092 33.903 23.2096 33.1023 23.2096 32.1144V19.5945C23.2096 18.6067 24.0092 17.8059 24.9956 17.8059C25.982 17.8059 26.7816 18.6067 26.7816 19.5945V32.1144Z" fill="#B71C1C"/>
</svg>
